<svg width="206" height="147" viewBox="0 0 206 147" fill="none" xmlns="http://www.w3.org/2000/svg">
<g clip-path="url(#clip0_1016_4205)">
<path d="M62.9338 47.8929C62.9338 47.8929 61.2401 45.421 59.4341 40.0944C57.628 34.7677 58.4478 16.42 58.2897 16.0039C58.1315 15.5878 56.5668 14.8512 55.5556 13.299C54.8482 12.2128 54.0034 10.9478 53.8536 9.72016C53.4916 6.74058 55.876 5.75848 58.015 4.15217C60.6617 2.18382 62.2721 0.698184 64.1698 4.11471C66.0674 7.53124 66.4544 8.98774 65.4182 11.2516C64.382 13.5154 64.3612 14.7014 64.4194 15.413C64.4777 16.1246 67.5322 35.521 68.1647 37.7806C68.997 39.57 73.1792 44.6345 73.1792 44.6345" fill="white"/>
<path d="M87.7276 49.2953C87.7276 49.2953 90.1204 49.6324 90.7779 49.0789C91.4354 48.5254 91.2898 45.4377 91.2898 45.4377L100.903 47.6016C100.903 47.6016 100.882 49.3452 101.39 50.2649C101.897 51.1846 105.405 51.1887 105.405 51.1887C105.405 51.1887 112.23 62.7367 96.2502 59.961C80.2703 57.1854 87.7276 49.2953 87.7276 49.2953Z" fill="white"/>
<path d="M87.794 32.0004C87.794 32.0004 85.2181 31.7632 85.6384 34.4598C86.0587 37.1564 87.8648 37.4768 87.8648 37.4768" fill="white"/>
<path d="M107.137 27.5061C107.137 27.5061 108.281 48.2383 96.966 48.2383C85.6511 48.2383 87.8983 29.437 87.8983 29.437L89.1259 23.8441" fill="white"/>
<path d="M94.9309 35.65C95.1814 35.65 95.3845 35.4469 95.3845 35.1964C95.3845 34.9459 95.1814 34.7428 94.9309 34.7428C94.6804 34.7428 94.4773 34.9459 94.4773 35.1964C94.4773 35.4469 94.6804 35.65 94.9309 35.65Z" fill="#231F20" stroke="#231F20" stroke-linecap="round" stroke-linejoin="round"/>
<path d="M101.901 35.9329C102.152 35.9329 102.355 35.7299 102.355 35.4794C102.355 35.2288 102.152 35.0258 101.901 35.0258C101.651 35.0258 101.448 35.2288 101.448 35.4794C101.448 35.7299 101.651 35.9329 101.901 35.9329Z" fill="#231F20" stroke="#231F20" stroke-linecap="round" stroke-linejoin="round"/>
<path d="M93.5577 26.5697C93.5577 26.5697 102.33 29.5368 107.865 28.3258C113.399 27.1149 114.273 19.0792 110.428 16.524C106.583 13.9689 101.839 17.0526 101.839 17.0526C101.839 17.0526 99.3878 11.5095 93.5161 13.3572C87.6443 15.2049 88.3601 19.5993 88.3601 19.5993C88.3601 19.5993 82.6215 19.9572 82.6215 25.7582C82.6215 31.5593 88.9468 33.4111 91.2314 31.6675C93.5161 29.9238 93.5577 26.5697 93.5577 26.5697Z" fill="#231F20" stroke="#231F20" stroke-miterlimit="10"/>
<path d="M128.738 51.0764C125.384 47.8679 123.112 45.7331 123.112 45.7331L122.875 45.9245C120.245 48.0593 113.033 50.8059 113.033 50.8059C110.673 51.3704 108.222 51.4497 105.83 51.0389C104.045 50.7268 103.749 50.5146 103.591 50.6769C103.433 50.8392 103.516 50.8308 103.308 51.3385C102.867 52.4122 100.499 54.3805 97.4071 54.5262C94.3152 54.6718 90.0539 51.1055 89.2924 49.5325C89.076 49.0872 89.0343 49.0373 88.8762 48.9748C88.1866 49.0347 87.5014 49.1376 86.8246 49.2828C85.6553 49.4409 82.6133 50.1775 80.5367 49.8862C75.9883 48.1425 74.3695 44.3182 72.5884 41.4343L72.4303 41.1763C72.4303 41.1763 70.4786 42.9117 66.2547 44.8301L60.3746 47.5017C61.8519 50.8766 63.8411 53.7438 67.6197 58.9747C71.3982 64.2056 75.1102 67.4724 77.0037 70.7099L77.1202 70.0108C77.0453 71.8751 77.0037 73.6645 77.0037 75.2709C77.0037 84.8629 75.027 104.401 75.027 105.649C75.027 106.898 89.0635 103.939 98.7471 103.652C108.431 103.365 112.617 103.931 113.633 103.56C114.648 103.19 113.37 99.9855 113.1 96.877C112.829 93.7684 109.55 87.5845 111.215 75.9409C111.631 73.0778 111.964 71.0345 112.247 69.578C115.002 68.7457 117.806 66.8981 121.818 64.1141C127.111 60.4271 129.941 58.3672 132.446 55.6706C132.413 55.6831 132.101 54.289 128.738 51.0764Z" fill="#2DBFAC"/>
<path d="M123.857 46.428C123.857 46.428 126.732 45.1796 127.927 44.0768C129.121 42.9741 135.963 24.9967 136.191 24.3184C136.42 23.6401 136.67 22.479 136.216 20.0363C135.823 17.4354 136.446 14.7831 137.956 12.629C138.239 12.2503 138.31 12.0755 139.25 11.9631C140.191 11.8508 143.411 12.8703 145.105 14.9052C146.799 16.9402 148.9 18.5049 147.839 21.3097C147.423 22.4666 146.279 23.4944 145.342 24.3766C143.99 25.6251 142.321 26.0703 142.063 26.4574C141.805 26.8444 137.511 45.7872 135.48 48.7626C134.247 50.5569 132.661 52.0806 130.819 53.2403" fill="white"/>
<path d="M162.354 4.14385C162.354 4.14385 165.359 1.647 167.835 0.506769C170.311 -0.633461 173.136 0.506769 173.136 0.506769L172.429 3.36566C171.111 3.49587 169.809 3.75654 168.542 4.14385C166.986 4.69315 164.477 6.5991 164.477 6.5991L162.354 4.14385Z" fill="#2DBFAC"/>
<path d="M134.248 85.3207C134.248 85.3207 137.694 83.4938 140.349 82.8612C143.004 82.2287 145.542 83.9307 145.542 83.9307L144.294 86.5857C142.976 86.4499 141.647 86.443 140.328 86.5649C138.693 86.7896 135.85 88.1504 135.85 88.1504L134.248 85.3207Z" fill="#2DBFAC"/>
<path d="M172.924 96.5357L180.477 97.368L179.375 100.431L171.905 99.353L172.924 96.5357Z" fill="#FFBC11" stroke="black" stroke-linejoin="round"/>
<path d="M166.549 126.019C166.549 126.019 172.417 126.989 173.961 127.913C175.504 128.837 175.679 132.024 175.679 132.024L171.934 132.324C171.934 132.324 171.747 130.368 170.49 129.69C169.233 129.011 164.585 128.133 164.585 128.133L166.549 126.019Z" fill="#FFBC11" stroke="black" stroke-linejoin="round"/>
<path d="M168.851 65.7818L167.08 67.7206C167.064 67.7124 167.047 67.704 167.029 67.6954C166.782 67.5738 166.436 67.4151 166.043 67.2675C165.651 67.1205 165.202 66.9805 164.752 66.9016C164.306 66.8236 163.824 66.7989 163.382 66.9135C162.965 67.0214 162.457 67.2775 161.961 67.5682C161.453 67.8654 160.915 68.2238 160.427 68.5665C160.071 68.817 159.738 69.0611 159.459 69.2701V67.5857C159.526 67.5102 159.62 67.4066 159.735 67.283C159.987 67.0136 160.34 66.6514 160.745 66.2788C161.151 65.9052 161.603 65.5279 162.053 65.224C162.51 64.9155 162.93 64.7063 163.278 64.6322L168.851 65.7818ZM168.851 65.7818C168.831 65.775 168.811 65.7682 168.79 65.7612C168.319 65.6008 167.673 65.3911 166.975 65.1934C166.275 64.9952 165.53 64.8115 164.859 64.7002C164.171 64.5862 163.62 64.5594 163.278 64.6322L168.851 65.7818Z" fill="#FFBC11" stroke="black"/>
<path d="M192.895 21.0434L193.956 25.5419L203.161 24.4516L205.5 19.4995L192.895 21.0434Z" fill="#2DBFAC"/>
<path d="M196.307 48.3548L197.219 44.5096L189.108 46.5238L187.96 50.6727L196.307 48.3548Z" fill="#FFBC11" stroke="black" stroke-linejoin="round"/>
<path d="M29.014 79.3283C29.014 79.3283 25.2688 78.2838 22.5264 78.238C19.784 78.1922 17.6825 80.3978 17.6825 80.3978L19.4927 82.7198C20.7513 82.3034 22.0475 82.0107 23.3628 81.8459C25.0274 81.7169 28.0777 82.4369 28.0777 82.4369L29.014 79.3283Z" fill="#2DBFAC"/>
<path d="M53.658 137.039C53.658 137.039 50.0626 138.533 47.8861 140.185C45.7097 141.837 45.3893 144.871 45.3893 144.871L48.244 145.582C48.9737 144.478 49.81 143.448 50.7409 142.507C51.956 141.387 54.8149 140.06 54.8149 140.06L53.658 137.039Z" fill="#FFBC11" stroke="black" stroke-linejoin="round"/>
<path d="M61.5606 97.2224L53.991 96.5357L55.2977 99.7567L62.8257 100.189L61.5606 97.2224Z" fill="#FFBC11" stroke="black" stroke-linejoin="round"/>
<path d="M39.5718 10.4235C39.5718 10.4235 34.191 7.88084 32.4016 7.76432C30.6122 7.6478 28.6562 10.1696 28.6562 10.1696L31.5692 12.5541C31.5692 12.5541 32.8177 11.0477 34.2534 11.2017C35.6891 11.3556 39.9962 13.2824 39.9962 13.2824L39.5718 10.4235Z" fill="#2DBFAC"/>
<path d="M32.3848 112.711C32.3848 112.711 29.0265 112.94 27.5035 113.889C25.9804 114.838 23.342 118.858 23.342 118.858L27.0873 119.099C27.0873 119.099 28.4897 116.727 29.734 116.028C30.9782 115.329 34.3656 114.779 34.3656 114.779L32.3848 112.711Z" fill="#2DBFAC"/>
<path d="M1.54452 68.2422L0.5 64.576L9.23066 61.4633L15.1898 63.6105L1.54452 68.2422Z" fill="#FFBC11" stroke="black" stroke-linejoin="round"/>
<path d="M19.3887 38.2217L18.8061 42.5163L10.9077 42.9491L8.0072 39.853L19.3887 38.2217Z" fill="#2DBFAC"/>
<path d="M34.7611 63.8602C35.868 64.0475 37.0332 64.2764 38.2609 64.5593C48.0777 66.8315 52.701 70.8389 52.701 70.8389" stroke="#231F20" stroke-miterlimit="10"/>
<path d="M25.3521 41.4801C25.3521 41.4801 31.4817 42.1043 40.2207 47.1188C48.9597 52.1333 52.2265 57.3018 52.2265 57.3018" stroke="#231F20" stroke-miterlimit="10"/>
<path d="M169.271 48.9623C168.377 49.126 167.442 49.3188 166.466 49.5407C156.645 51.7921 152.042 55.8203 152.042 55.8203" stroke="#231F20" stroke-miterlimit="10"/>
<path d="M179.375 26.4739C179.375 26.4739 173.266 27.0982 164.527 32.1127C155.788 37.1272 152.521 42.2998 152.521 42.2998" stroke="#231F20" stroke-miterlimit="10"/>
<path d="M98.9594 35.3919C98.9594 35.3919 99.713 38.7835 99.284 39.4202C98.8553 40.0569 97.4363 39.6199 97.4363 39.6199" stroke="#231F20" stroke-linecap="round" stroke-linejoin="round"/>
<path d="M93.3039 41.5342C94.6048 41.9791 95.9356 42.331 97.2864 42.587C99.1965 42.8908 100.923 42.741 100.915 42.8409C100.907 42.9407 99.08 44.5304 97.1075 44.1684C95.2098 43.8188 93.1708 41.5134 93.3039 41.5342Z" stroke="#231F20" stroke-miterlimit="10" stroke-linecap="round"/>
<path d="M60.4911 2.45005C61.8394 1.75093 62.9505 1.90491 64.1781 4.11462C66.0549 7.50202 66.4627 8.98766 65.4265 11.2515C64.3903 13.5153 64.3695 14.7013 64.4278 15.4129C64.4861 16.1245 67.5405 35.5209 68.1731 37.7805C69.0054 39.5699 73.1668 44.6344 73.1668 44.6344" stroke="#231F20" stroke-miterlimit="10"/>
<path d="M62.9338 47.8928C62.9338 47.8928 61.2401 45.4209 59.4341 40.0943C57.628 34.7677 58.452 16.42 58.2897 16.0038C58.1274 15.5877 56.5668 14.8511 55.5556 13.2989C54.8482 12.2128 54.0034 10.9477 53.8536 9.72011C53.4957 6.74053 55.876 5.75844 58.015 4.15213C58.4312 3.84834 58.8057 3.55704 59.1719 3.29071" stroke="#231F20" stroke-miterlimit="10"/>
<path d="M143.183 13.2948C143.908 13.7219 144.558 14.2661 145.105 14.9053C146.824 16.986 148.9 18.5049 147.839 21.3097C147.423 22.4666 146.279 23.4944 145.342 24.3767C143.99 25.6251 142.321 26.0704 142.063 26.4574C141.805 26.8444 137.511 45.7872 135.484 48.7626C134.249 50.5566 132.662 52.0802 130.819 53.2403" stroke="#231F20" stroke-miterlimit="10"/>
<path d="M123.857 46.428C123.857 46.428 126.733 45.1796 127.927 44.0768C129.121 42.974 135.963 24.9967 136.192 24.3184C136.421 23.6401 136.67 22.479 136.217 20.0363C135.824 17.4354 136.447 14.7831 137.956 12.6289C138.239 12.2503 138.31 12.0755 139.25 11.9631" stroke="#231F20" stroke-miterlimit="10"/>
<path d="M54.8398 6.50333C55.4079 6.5306 55.9728 6.60297 56.5294 6.71973C56.9913 6.86538 58.0691 9.35807 58.2189 9.63272C58.3687 9.90738 58.7516 10.5274 58.6351 10.8187C58.5331 10.9682 58.3915 11.0864 58.2261 11.1599C58.0607 11.2334 57.8781 11.2594 57.6987 11.2349C57.3492 11.1891 57.2202 11.0851 56.7624 10.7188C56.5502 10.5482 56.1673 9.88657 55.8594 9.52452C55.6143 9.23926 55.3124 9.00823 54.973 8.84621" stroke="#231F20" stroke-miterlimit="10"/>
<path d="M57.5033 4.53912C57.5033 4.53912 57.7988 4.53911 58.6144 5.17581C59.43 5.81251 60.0959 8.25944 60.3372 8.85868C60.4583 9.14902 60.5158 9.46192 60.5057 9.77633C60.4957 10.0907 60.4183 10.3994 60.279 10.6814C60.1921 10.8652 60.051 11.018 59.8747 11.1192C59.6983 11.2204 59.4952 11.2651 59.2927 11.2473C58.8308 11.1683 58.5353 10.2486 58.5353 10.2486" stroke="#231F20" stroke-miterlimit="10"/>
<path d="M63.7413 3.45717C63.2108 3.24497 62.66 3.0874 62.0975 2.98693C61.1903 2.8288 59.6548 1.87168 59.1845 2.37521C58.7143 2.87874 59.5174 4.32276 60.0168 4.74723C60.5162 5.17169 61.4275 5.7959 61.6814 5.96652C61.9352 6.13714 62.3389 7.21494 62.1849 7.43966C62.0309 7.66437 61.7105 8.68808 61.1487 9.12503C60.8383 9.45679 60.6028 9.85131 60.4579 10.2819" stroke="#231F20" stroke-miterlimit="10"/>
<path d="M60.9281 5.45044C60.9281 5.45044 61.3151 6.22445 61.5523 6.7363C61.7242 7.15156 61.8566 7.5821 61.9476 8.02219" fill="white"/>
<path d="M60.9281 5.45044C60.9281 5.45044 61.3151 6.22445 61.5523 6.7363C61.7242 7.15156 61.8566 7.5821 61.9476 8.02219" stroke="#231F20" stroke-miterlimit="10"/>
<path d="M147.652 17.9472C147.092 17.8382 146.524 17.7742 145.954 17.7558C145.476 17.7891 143.832 19.9489 143.624 20.1777C143.416 20.4066 142.891 20.9185 142.958 21.2347C143.018 21.4066 143.125 21.558 143.267 21.6715C143.409 21.7849 143.58 21.8557 143.761 21.8756C144.115 21.9172 144.265 21.8465 144.797 21.6009C145.039 21.4844 145.567 20.9518 145.958 20.6563C146.265 20.4378 146.614 20.2848 146.982 20.2069" stroke="#231F20" stroke-miterlimit="10"/>
<path d="M145.53 15.4005C145.53 15.4005 145.247 15.3256 144.281 15.7583C143.316 16.1911 142.109 18.4009 141.73 18.921C141.543 19.1747 141.412 19.4658 141.346 19.7746C141.281 20.0833 141.283 20.4025 141.352 20.7104C141.393 20.9106 141.495 21.093 141.644 21.233C141.793 21.373 141.982 21.4637 142.184 21.4928C142.65 21.5261 143.154 20.7021 143.154 20.7021" stroke="#231F20" stroke-miterlimit="10"/>
<path d="M138.951 12.0047C139.517 11.9268 140.09 11.9059 140.661 11.9423C141.581 12.0047 143.299 11.4429 143.632 12.0422C143.965 12.6414 142.846 13.8524 142.263 14.1478C141.681 14.4433 140.182 14.8428 139.895 14.9469C139.608 15.0509 139.408 15.8624 139.375 16.42C139.382 17.1508 139.621 17.8605 140.058 18.4466" stroke="#231F20" stroke-miterlimit="10"/>
<path d="M144.215 14.1811C144.215 14.1811 142.396 14.8012 141.976 15.2007C141.589 15.6046 141.231 16.0342 140.902 16.4865C140.582 17.0094 140.323 17.5681 140.132 18.1511C140.013 18.5783 139.933 19.0158 139.895 19.4578C139.887 19.6536 139.943 19.8467 140.054 20.0081C140.165 20.1695 140.325 20.2904 140.511 20.3525C140.786 20.4149 141.075 20.375 141.323 20.2401" stroke="#231F20" stroke-miterlimit="10"/>
<path d="M100.703 47.356C100.703 47.356 100.682 49.341 101.19 50.269C101.698 51.197 105.206 51.1928 105.206 51.1928" stroke="#231F20" stroke-linecap="round" stroke-linejoin="round"/>
<path d="M91.1026 45.9036C91.1026 45.9036 91.2316 48.517 90.5783 49.0746C90.1996 49.3909 89.2425 49.4159 88.4976 49.3784" stroke="#231F20" stroke-miterlimit="10"/>
<path d="M87.8359 37.4809C88.4893 42.587 90.6158 48.2382 96.8204 48.2382C108.14 48.2382 106.991 27.506 106.991 27.506" stroke="#231F20" stroke-linecap="round" stroke-linejoin="round"/>
<path d="M87.6527 32.0004C87.6527 32.0004 85.0767 31.7632 85.4929 34.4598C85.909 37.1564 87.7234 37.4768 87.7234 37.4768" stroke="#231F20" stroke-linecap="round" stroke-linejoin="round"/>
<path d="M128.738 51.0764C125.384 47.8679 123.112 45.7331 123.112 45.7331L122.875 45.9245C120.245 48.0593 113.033 50.8059 113.033 50.8059C110.673 51.3704 108.222 51.4497 105.83 51.0389C104.045 50.7268 103.749 50.5146 103.591 50.6769C103.433 50.8392 103.516 50.8308 103.308 51.3385C102.867 52.4122 100.499 54.3805 97.4071 54.5262C94.3152 54.6718 90.0539 51.1055 89.2924 49.5325C89.076 49.0872 89.0343 49.0373 88.8762 48.9748C88.1866 49.0347 87.5014 49.1376 86.8246 49.2828C85.6553 49.4409 82.6133 50.1775 80.5367 49.8862C75.9883 48.1425 74.3695 44.3182 72.5884 41.4343L72.4303 41.1763C72.4303 41.1763 70.4786 42.9117 66.2547 44.8301L60.3746 47.5017C61.8519 50.8766 63.8411 53.7438 67.6197 58.9747C71.3982 64.2056 75.1102 67.4724 77.0037 70.7099L77.1202 70.0108C77.0453 71.8751 77.0037 73.6645 77.0037 75.2709C77.0037 84.8629 75.027 104.401 75.027 105.649C75.027 106.898 89.0635 103.939 98.7471 103.652C108.431 103.365 112.617 103.931 113.633 103.56C114.648 103.19 113.37 99.9855 113.1 96.877C112.829 93.7684 109.55 87.5845 111.215 75.9409C111.631 73.0778 111.964 71.0345 112.247 69.578C115.002 68.7457 117.806 66.8981 121.818 64.1141C127.111 60.4271 129.941 58.3672 132.446 55.6706C132.413 55.6831 132.101 54.289 128.738 51.0764Z" fill="#2DBFAC"/>
</g>
<defs>
<clipPath id="clip0_1016_4205">
<rect width="205.5" height="146.08" fill="white"/>
</clipPath>
</defs>
</svg>
