<svg width="40" height="39" viewBox="0 0 40 39" fill="none" xmlns="http://www.w3.org/2000/svg">
<path d="M20 18.9375C17.25 18.9375 15 18.0625 13.25 16.3125C11.5 14.5625 10.625 12.3125 10.625 9.5625C10.625 6.8125 11.5 4.5625 13.25 2.8125C15 1.0625 17.25 0.1875 20 0.1875C22.75 0.1875 25 1.0625 26.75 2.8125C28.5 4.5625 29.375 6.8125 29.375 9.5625C29.375 12.3125 28.5 14.5625 26.75 16.3125C25 18.0625 22.75 18.9375 20 18.9375ZM0 39V33.125C0 31.5417 0.395833 30.1875 1.1875 29.0625C1.97917 27.9375 3 27.0833 4.25 26.5C7.04167 25.25 9.71875 24.3125 12.2813 23.6875C14.8438 23.0625 17.4167 22.75 20 22.75C22.5833 22.75 25.1458 23.0729 27.6875 23.7188C30.2292 24.3646 32.8958 25.2917 35.6875 26.5C36.9792 27.0833 38.0208 27.9375 38.8125 29.0625C39.6042 30.1875 40 31.5417 40 33.125V39H0ZM3.75 35.25H36.25V33.125C36.25 32.4583 36.0521 31.8229 35.6562 31.2188C35.2604 30.6146 34.7708 30.1667 34.1875 29.875C31.5208 28.5833 29.0833 27.6979 26.875 27.2188C24.6667 26.7396 22.375 26.5 20 26.5C17.625 26.5 15.3125 26.7396 13.0625 27.2188C10.8125 27.6979 8.375 28.5833 5.75 29.875C5.16667 30.1667 4.6875 30.6146 4.3125 31.2188C3.9375 31.8229 3.75 32.4583 3.75 33.125V35.25ZM20 15.1875C21.625 15.1875 22.9688 14.6562 24.0312 13.5937C25.0938 12.5312 25.625 11.1875 25.625 9.5625C25.625 7.9375 25.0938 6.59375 24.0312 5.53125C22.9688 4.46875 21.625 3.9375 20 3.9375C18.375 3.9375 17.0312 4.46875 15.9688 5.53125C14.9062 6.59375 14.375 7.9375 14.375 9.5625C14.375 11.1875 14.9062 12.5312 15.9688 13.5937C17.0312 14.6562 18.375 15.1875 20 15.1875Z" fill="#98979C"/>
</svg>
